<?xml version="1.0" encoding="utf-8"?>
<!-- Generator: Adobe Illustrator 23.1.0, SVG Export Plug-In . SVG Version: 6.00 Build 0)  -->
<svg version="1.1" id="Capa_1" xmlns="http://www.w3.org/2000/svg" xmlns:xlink="http://www.w3.org/1999/xlink" x="0px" y="0px"
	 viewBox="0 0 595.3 595.3" enable-background="new 0 0 595.3 595.3" xml:space="preserve">
<path fill="none" stroke="#000000" stroke-miterlimit="10" d="M71,238.5c-9.1,7.8-17.6,16.8-23.8,26.8c0,0-18.9,39.3-21.7,62.1"/>
<g>
	<path fill="none" stroke="#000000" stroke-miterlimit="10" d="M547.6,203.6c-5.9-10.5-13.9-22.5-24.9-35.5c0,0-13.2-30.8-68.2-35.8
		"/>
	<path d="M247.8,212c-0.9-0.3,274.3-82.7,314.6,15.2c0,0,43.8,74.3-33.6,200.6c0,0-28.5,55-138.5,51.9c0,0-211.8-20.8-240.3-16.5
		c0,0-98.6,17.5-123.2-50.7c0,0-42.8-81.7,38.7-121.8C65.5,290.7,180,228.4,247.8,212z"/>
	<path stroke="#FFFFFF" stroke-miterlimit="10" d="M570.5,247.3c-3.6-14.7-8.1-22.5-8.1-22.5c-40.3-98.9-315.6-15.6-314.6-15.3
		C180,226.1,65.5,289,65.5,289C-16,329.6,26.8,412.2,26.8,412.2c4.6,12.9,11.8,22.8,20.5,30.3L570.5,247.3z"/>
	<path stroke="#FFFFFF" stroke-miterlimit="10" d="M134.8,188c0,0-53.2,24.4-63.9,50.4c0,0-19.4,45.8-20,59.4
		c0,0,37.1-41.3,124.1-67c-18,5.5,114.3-41.4,176.3-52.5c2.4-0.4,4.8-0.8,7-1.1c56.6-8.4,73.3-0.7,73.3-0.7s37.6-4,78.5,6.9
		c6.8,1.8-28.9-44.4-81.6-38.5c0,0-79.6,16.9-96.2,19.3c0,0-70.7,10.6-139.8,37.7c0,0-89.6,28.8-65.1,2.5c0,0,29.2-18.5,144.5-48.5
		c0,0,70.8-16.2,93.9-15.6l96.2-5.4c0,0-53.7-31.3-101.9-10c0,0-59.2,9.2-124.9,24.4C235.2,149.4,166.6,172.5,134.8,188z"/>
	<g>
		<path fill="#FFFFFF" stroke="#FFFFFF" stroke-width="1.1603" stroke-miterlimit="10" d="M346.1,410.4l-8.2,3.3l5.3,11.7
			c0.8,1.7,0.9,3.1,0.5,4.3c-0.5,1.2-1.3,2.1-2.6,2.6c-1.4,0.5-2.6,0.5-3.8,0c-1.2-0.5-2.2-1.6-2.9-3.3L320,397.1
			c-0.8-1.8-1-3.3-0.4-4.5c0.5-1.2,1.8-2.1,3.8-2.9l11.5-4.6c3.4-1.4,6.1-2.2,8.2-2.4c2-0.3,4-0.1,5.8,0.5s3.4,1.5,4.8,2.8
			s2.5,2.9,3.4,4.9c1.9,4.2,2,8,0.2,11.2C355.3,405.5,351.6,408.2,346.1,410.4z M335.4,392.4l-6.1,2.4l5.7,12.6l6.1-2.4
			c2.1-0.8,3.8-1.8,5-2.7c1.2-1,2-2.1,2.3-3.3c0.3-1.2,0.1-2.6-0.6-4.1c-0.8-1.8-2.1-3.1-3.7-3.8
			C342.3,390.3,339.4,390.8,335.4,392.4z"/>
		<path fill="#FFFFFF" stroke="#FFFFFF" stroke-width="1.1603" stroke-miterlimit="10" d="M400,403.7c-1.3,2.2-2.8,4.1-4.3,5.6
			s-3.5,2.7-5.8,3.6c-2.1,0.8-4.2,1.2-6.1,1.1c-2-0.1-3.7-0.7-5.1-1.7c-1.5-1-2.6-2.3-3.3-3.8c-1-2.1-1-4.2-0.3-6.2
			c0.8-2.1,2.3-3.8,4.5-5.3c0.5-0.3,1.7-1.1,3.6-2.3c1.9-1.2,3.5-2.3,4.9-3.2c1.3-0.9,2.8-2,4.3-3.1c-1-2-2.1-3.3-3.3-3.9
			c-1.2-0.6-3-0.5-5.5,0.5c-2.1,0.8-3.6,1.7-4.4,2.7s-1.3,2.1-1.6,3.5c-0.3,1.4-0.5,2.3-0.6,2.8c-0.2,0.5-0.7,0.9-1.8,1.3
			c-0.9,0.4-1.9,0.4-2.8,0.1s-1.6-0.9-2-1.7c-0.6-1.4-0.7-2.9-0.2-4.6c0.4-1.7,1.6-3.4,3.4-5.1s4.3-3.2,7.6-4.5
			c3.6-1.4,6.7-2.2,9.1-2.2s4.5,0.7,6.1,2c1.6,1.4,3.1,3.5,4.4,6.4c0.8,1.8,1.5,3.3,2.1,4.6c0.6,1.3,1.2,2.7,1.9,4.2
			c0.7,1.4,1.6,2.9,2.8,4.2c1.2,1.4,1.9,2.3,2.1,2.7c0.4,0.8,0.3,1.7-0.2,2.6c-0.5,1-1.3,1.6-2.3,2.1c-0.8,0.3-1.8,0.3-3-0.1
			C402.9,405.4,401.6,404.7,400,403.7z M394.4,392.8c-1,0.9-2.6,2-4.7,3.4s-3.5,2.4-4.3,2.9c-0.8,0.6-1.4,1.3-2,2.3s-0.5,2,0,3.1
			c0.5,1.2,1.4,2,2.8,2.4c1.3,0.4,2.7,0.4,4.3-0.3c1.6-0.7,3-1.6,4.1-2.8c1.1-1.2,1.7-2.5,1.9-3.8c0.2-1.5-0.3-3.5-1.5-6.2
			L394.4,392.8z"/>
		<path fill="#FFFFFF" stroke="#FFFFFF" stroke-width="1.1603" stroke-miterlimit="10" d="M444.7,385.8l-0.3-0.8
			c-0.6,1.6-1.2,3-2,4.2c-0.7,1.2-1.7,2.2-2.7,3.1c-1.1,0.9-2.4,1.6-3.9,2.2c-2,0.8-4,1.1-6,1s-4-0.6-5.9-1.6s-3.6-2.3-5.1-4
			s-2.8-3.7-3.8-6c-2.2-4.8-2.6-9.1-1.3-12.8c1.3-3.7,4-6.4,8.1-8c2.4-0.9,4.6-1.4,6.5-1.3c2,0.1,4.1,0.6,6.4,1.6l-5.1-11.4
			c-0.7-1.6-0.9-2.9-0.6-4s1.1-1.9,2.3-2.4c1.3-0.5,2.4-0.5,3.4,0s1.8,1.4,2.5,2.9l15.3,33.9c0.7,1.5,0.8,2.7,0.4,3.7
			s-1.2,1.8-2.3,2.2c-1.1,0.5-2.2,0.4-3.3,0C446.2,388.1,445.4,387.2,444.7,385.8z M423.4,380.9c0.9,2.1,2.1,3.7,3.5,4.9
			c1.4,1.2,2.8,1.9,4.4,2.2c1.5,0.3,3,0.1,4.5-0.5s2.6-1.5,3.5-2.6c0.9-1.2,1.4-2.6,1.4-4.4c0.1-1.7-0.4-3.7-1.4-5.9
			c-0.9-2-2.1-3.7-3.5-4.9c-1.4-1.2-2.9-1.9-4.4-2.2s-3.1-0.2-4.5,0.4c-1.5,0.6-2.7,1.5-3.5,2.8s-1.2,2.8-1.2,4.5
			C422,377.1,422.5,379,423.4,380.9z"/>
		<path fill="#FFFFFF" stroke="#FFFFFF" stroke-width="1.1603" stroke-miterlimit="10" d="M485.9,358.4l-16.2,6.4
			c0.8,1.7,1.9,3.1,3.2,4.2c1.3,1,2.8,1.7,4.3,1.8c1.5,0.2,3,0,4.5-0.6c1-0.4,1.8-0.9,2.6-1.4c0.7-0.5,1.4-1.2,1.9-2
			c0.6-0.8,1-1.5,1.4-2.3s0.9-1.8,1.5-3.1c0.3-0.5,0.8-0.9,1.6-1.2c0.8-0.3,1.6-0.4,2.3-0.2c0.7,0.2,1.3,0.7,1.6,1.5
			c0.3,0.7,0.4,1.6,0.2,2.8c-0.2,1.2-0.6,2.4-1.4,3.7c-0.8,1.3-2,2.6-3.5,3.9s-3.5,2.4-5.8,3.3c-5.3,2.1-10.1,2.3-14.3,0.7
			c-4.2-1.6-7.4-4.9-9.6-9.7c-1-2.3-1.6-4.5-1.8-6.8c-0.2-2.2,0.2-4.3,0.9-6.3c0.8-1.9,2-3.7,3.7-5.2c1.7-1.6,3.8-2.8,6.3-3.8
			c3.2-1.3,6.3-1.8,9.2-1.4c2.9,0.3,5.4,1.3,7.4,2.9s3.6,3.4,4.5,5.5c0.9,1.9,0.8,3.4-0.1,4.5C489.6,356.5,488,357.5,485.9,358.4z
			 M467.7,360.4l15-6c-1.4-2.6-3-4.2-5-5c-1.9-0.8-3.9-0.7-6.1,0.1c-2.1,0.8-3.4,2.2-4.2,4C466.7,355.4,466.8,357.7,467.7,360.4z"/>
		<path fill="#FFFFFF" stroke="#FFFFFF" stroke-width="1.1603" stroke-miterlimit="10" d="M509.9,359.5l-15.1-33.4
			c-0.7-1.5-0.9-2.9-0.5-3.9c0.4-1.1,1.2-1.9,2.4-2.4c1.3-0.5,2.4-0.5,3.6,0c1.1,0.5,2,1.5,2.7,3.1l15.1,33.4c0.7,1.6,0.8,2.9,0.4,4
			c-0.4,1.1-1.3,1.9-2.5,2.4s-2.4,0.5-3.5,0C511.5,362,510.6,361,509.9,359.5z"/>
	</g>
	
		<line fill="none" stroke="#FFFFFF" stroke-width="4" stroke-linecap="round" stroke-miterlimit="10" x1="125.7" y1="382.7" x2="304.6" y2="315.1"/>
	<polygon fill="#FFFFFF" points="126.7,382.4 128,391.8 135.2,389 130.6,380.9 	"/>
</g>
</svg>
