<?xml version="1.0" encoding="utf-8"?>
<!-- Generator: Adobe Illustrator 23.1.0, SVG Export Plug-In . SVG Version: 6.00 Build 0)  -->
<svg version="1.1" xmlns="http://www.w3.org/2000/svg" xmlns:xlink="http://www.w3.org/1999/xlink" x="0px" y="0px"
	 viewBox="0 0 595.3 595.3" enable-background="new 0 0 595.3 595.3" xml:space="preserve">
<g id="Capa_1">
</g>
<g id="Capa_2">
	<circle fill="#F1EA71" cx="314.4" cy="460.1" r="70.8"/>
	<path fill="#CFC761" d="M376.1,425.5c0,0,31.5,57.6-25.7,95.5c0,0-31.6,22.9-71.9,0.1c0,0,53.4,7.9,80.7-29.1
		C359.2,492.1,379.9,468.1,376.1,425.5z"/>
	
		<path fill="none" stroke="#FFFFFF" stroke-width="7.3516" stroke-linecap="round" stroke-linejoin="round" stroke-miterlimit="10" d="
		M249.2,441.2c0,0,15.1-0.8,23.8,19.1c0,0,12.3,44.8,55.9,31.7c0,0,39.9-15.2,11-64.5c0,0-7.9-10.7-4.4-18.8l4.2-11.5"/>
	<circle fill="#F1EA71" cx="301.1" cy="309.7" r="70.8"/>
	<path fill="#CFC761" d="M367.6,285.6c0,0,21.7,61.9-41,90c0,0-34.9,17.4-70.9-11.6c0,0,51.4,16.5,84.3-15.5
		C340,348.5,364.3,328.2,367.6,285.6z"/>
	
		<path fill="none" stroke="#FFFFFF" stroke-width="7.3516" stroke-linecap="round" stroke-linejoin="round" stroke-miterlimit="10" d="
		M302.9,241.9c0,0,4.6,14.4-12.4,27.9c0,0-40.2,23.2-16.6,62.1c0,0,24.7,34.8,65.2-5.6c0,0,8.3-10.3,17.1-9l12.2,1.2"/>
	<circle fill="#F1EA71" cx="293.7" cy="153.2" r="70.8"/>
	<path fill="#CFC761" d="M361.5,132.9c0,0,18.2,63-45.9,87.6c0,0-35.8,15.5-70.2-15.5c0,0,50.4,19.3,85.1-10.8
		C330.4,194.1,355.8,175.2,361.5,132.9z"/>
	
		<path fill="none" stroke="#FFFFFF" stroke-width="7.3516" stroke-linecap="round" stroke-linejoin="round" stroke-miterlimit="10" d="
		M266.7,215.5c0,0,1.1-15.1,21.9-21.2c0,0,46-6.6,38.5-51.4c0,0-10-41.5-62.6-19.1c0,0-11.6,6.5-19.2,2l-10.8-5.7"/>
	
		<path opacity="0.5" fill="none" stroke="#A1D9F3" stroke-width="5.9468" stroke-linecap="round" stroke-linejoin="round" stroke-miterlimit="10" d="
		M199.9,66.4l25.7,443.3c0,0,13.7,90.9,63.5,39.4c0,0,42.9,37.7,63.5-3.4c0,0,54.9,37.7,58.3-41.2L379.9,81l-0.9-28.3h5.1
		c0,0,6-22.3-11.1-23.2c0,0-96.9-4.3-168.9,11.1c0,0-18,2.6-11.4,22.9L199.9,66.4z"/>
	
		<path opacity="0.2" fill="#A1D9F3" stroke="#A1D9F3" stroke-width="5.9468" stroke-linecap="round" stroke-linejoin="round" stroke-miterlimit="10" d="
		M199.9,66.4l25.7,443.3c0,0,13.7,90.9,63.5,39.4c0,0,42.9,37.7,63.5-3.4c0,0,54.9,37.7,58.3-41.2L379.9,81l-0.9-28.3h5.1
		c0,0,6-22.3-11.1-23.2c0,0-96.9-4.3-168.9,11.1c0,0-18,2.6-11.4,22.9L199.9,66.4z"/>
	<g>
		<path fill="#7BB3C6" d="M205.9,87c3-1.8,6.4-3,9.8-4.1c1.7-0.5,3.4-1,5.1-1.5l5.1-1.3c1.7-0.4,3.5-0.7,5.2-1.1
			c1.7-0.3,3.5-0.7,5.2-1c1.7-0.3,3.5-0.6,5.2-0.9c1.7-0.3,3.5-0.6,5.2-0.8c3.5-0.5,7-0.9,10.5-1.3l10.5-1c1.8-0.2,3.5-0.3,5.3-0.4
			l5.3-0.3c3.5-0.2,7-0.5,10.5-0.6l10.5-0.3c3.5-0.1,7-0.2,10.5-0.2l10.5,0c1.8,0,3.5,0,5.3,0l5.3,0.2c7,0.2,14,0.4,21.1,0.9
			c7,0.5,14,1,21,1.7c-7,0.6-14,0.9-21,1.2c-3.5,0.1-7,0.3-10.5,0.5c-3.5,0.2-7,0.3-10.5,0.4l-21,0.8c-7,0.2-14,0.5-21,0.8
			c-3.5,0.1-7,0.3-10.5,0.5c-3.5,0.2-7,0.3-10.5,0.5l-10.5,0.6c-3.5,0.3-7,0.5-10.4,0.7c-3.5,0.2-6.9,0.6-10.4,0.9
			c-1.7,0.1-3.5,0.4-5.2,0.5c-1.7,0.2-3.5,0.3-5.2,0.6l-5.2,0.7c-1.7,0.3-3.4,0.6-5.2,0.8c-1.7,0.4-3.4,0.6-5.1,1.1
			C209.2,85.9,207.5,86.4,205.9,87z"/>
	</g>
	<path fill="#F7B855" stroke="#F7B855" stroke-width="2.1655" stroke-miterlimit="10" d="M192.3,66.6c0,0-11.4-23.2,11-27.3
		c0,0,57.2-15.3,172.3-11.8c0,0,13.2,1.6,8.6,25.7H379C379,53.3,293.6,47.7,192.3,66.6z"/>
</g>
</svg>
