<?xml version="1.0" encoding="utf-8"?>
<!-- Generator: Adobe Illustrator 23.1.0, SVG Export Plug-In . SVG Version: 6.00 Build 0)  -->
<svg version="1.1" id="Capa_1" xmlns="http://www.w3.org/2000/svg" xmlns:xlink="http://www.w3.org/1999/xlink" x="0px" y="0px"
	 viewBox="0 0 595.3 595.3" enable-background="new 0 0 595.3 595.3" xml:space="preserve">
<g>
	<circle cx="312.3" cy="458.7" r="70.1"/>
	<path fill="none" stroke="#FFFFFF" stroke-width="4" stroke-miterlimit="10" d="M247.7,440c0,0,15-0.8,23.6,18.9
		c0,0,12.2,44.4,55.4,31.4c0,0,39.6-15,10.9-63.9c0,0-7.8-10.6-4.4-18.6l4.2-11.4"/>
	<circle cx="299.1" cy="309.6" r="70.1"/>
	<path fill="none" stroke="#FFFFFF" stroke-width="4" stroke-miterlimit="10" d="M300.9,242.4c0,0,4.6,14.3-12.3,27.6
		c0,0-39.9,23-16.5,61.5c0,0,24.5,34.5,64.6-5.5c0,0,8.3-10.2,16.9-8.9l12.1,1.2"/>
	<circle cx="291.7" cy="154.5" r="70.1"/>
	<path fill="none" stroke="#FFFFFF" stroke-width="4" stroke-miterlimit="10" d="M265,216.2c0,0,1.1-15,21.7-21.1
		c0,0,45.5-6.5,38.2-51c0,0-9.9-41.1-62-18.9c0,0-11.5,6.4-19,2l-10.7-5.6"/>
	<path fill="none" stroke="#000000" stroke-width="4" stroke-miterlimit="10" d="M198.8,68.5l25.5,439.4c0,0,13.6,90.1,62.9,39.1
		c0,0,42.5,37.4,62.9-3.4c0,0,54.4,37.4,57.8-40.8L377.3,82.9l-0.8-28h5.1c0,0,5.9-22.1-11-22.9c0,0-96-4.2-167.4,11
		c0,0-17.9,2.5-11.3,22.7L198.8,68.5z"/>
	<g>
		<path d="M204.7,88.9c3-1.8,6.4-2.9,9.7-4.1c1.7-0.5,3.4-1,5.1-1.5l5.1-1.3c1.7-0.4,3.4-0.7,5.1-1.1c1.7-0.3,3.4-0.7,5.2-1
			c3.4-0.6,6.9-1.1,10.4-1.6s6.9-0.9,10.4-1.3l10.4-1c1.7-0.2,3.5-0.3,5.2-0.4l5.2-0.3c3.5-0.2,7-0.5,10.4-0.6l10.5-0.3
			c3.5-0.1,7-0.2,10.5-0.2h10.5c1.7,0,3.5,0,5.2,0l5.2,0.2c7,0.2,13.9,0.4,20.9,0.9s13.9,0.9,20.8,1.7c-7,0.6-13.9,0.9-20.9,1.2
			c-3.5,0.1-6.9,0.3-10.4,0.5s-6.9,0.3-10.4,0.4L308,79.8c-6.9,0.2-13.9,0.5-20.8,0.8c-3.5,0.1-6.9,0.3-10.4,0.5s-6.9,0.3-10.4,0.5
			L256,82.2c-3.4,0.3-6.9,0.5-10.4,0.7s-6.9,0.6-10.3,0.9c-1.7,0.1-3.4,0.4-5.2,0.5c-1.7,0.2-3.4,0.3-5.2,0.6l-5.1,0.7
			c-1.7,0.3-3.4,0.6-5.1,0.8c-1.7,0.3-3.4,0.6-5.1,1C208,87.8,206.3,88.2,204.7,88.9z"/>
	</g>
	<path d="M191.3,68.6c0,0-11.3-22.9,10.9-27c0,0,56.7-15.1,170.8-11.7c0,0,13,1.6,8.5,25.5h-5.2C376.3,55.4,291.7,49.9,191.3,68.6z"
		/>
</g>
</svg>
