<?xml version="1.0" standalone="no"?>
<!DOCTYPE svg PUBLIC "-//W3C//DTD SVG 20010904//EN"
 "http://www.w3.org/TR/2001/REC-SVG-20010904/DTD/svg10.dtd">
<svg version="1.0" xmlns="http://www.w3.org/2000/svg"
 width="1136.000000pt" height="580.000000pt" viewBox="0 0 1136.000000 580.000000"
 preserveAspectRatio="xMidYMid meet">

<g transform="translate(0.000000,580.000000) scale(0.100000,-0.100000)"
fill="#000000" stroke="none">
<path d="M3630 2695 c-158 -36 -256 -89 -360 -194 -124 -126 -180 -264 -180
-446 0 -361 256 -624 640 -659 268 -25 525 93 661 301 134 207 138 483 8 699
-76 126 -246 248 -404 290 -85 22 -283 27 -365 9z m308 -305 c69 -30 150 -117
177 -191 29 -78 27 -223 -4 -301 -29 -76 -100 -149 -176 -184 -116 -53 -276
-32 -371 50 -87 75 -138 230 -116 356 26 148 114 248 251 287 66 18 175 11
239 -17z"/>
<path d="M480 2552 l0 -141 323 -3 322 -3 45 -25 c59 -33 90 -87 90 -158 0
-29 -6 -67 -14 -85 -17 -42 -66 -83 -114 -97 -22 -6 -164 -10 -344 -10 l-308
0 0 -305 0 -305 175 0 175 0 0 165 0 165 148 0 c226 1 354 31 465 110 171 122
225 357 129 560 -34 73 -121 157 -204 198 -116 57 -166 63 -545 69 l-343 5 0
-140z"/>
<path d="M1800 2551 l0 -141 303 0 c242 0 314 -3 354 -15 155 -46 179 -265 38
-339 -38 -20 -58 -21 -367 -24 l-328 -3 0 -305 0 -304 175 0 175 0 2 168 3
167 101 3 100 3 113 -166 c62 -92 118 -168 125 -171 6 -2 91 -3 188 -2 l177 3
-130 189 c-71 104 -129 192 -129 197 0 4 21 21 48 37 128 83 192 205 192 367
0 139 -39 234 -134 323 -63 60 -132 96 -234 124 -68 18 -116 21 -424 25 l-348
6 0 -142z"/>
<path d="M4690 2552 l0 -141 323 -3 c310 -3 324 -4 367 -25 57 -28 89 -76 97
-141 11 -96 -36 -171 -126 -201 -23 -7 -140 -11 -347 -11 l-314 0 0 -305 0
-305 180 0 180 0 0 164 0 164 183 5 c126 3 200 10 242 22 254 72 387 263 353
509 -26 189 -153 320 -365 377 -70 19 -114 22 -425 26 l-348 5 0 -140z"/>
<path d="M6087 2063 c-153 -346 -277 -631 -277 -636 0 -4 80 -6 178 -5 l177 3
175 436 c96 239 180 446 185 458 10 21 35 -36 195 -438 l185 -461 182 0 182 0
-20 48 c-11 26 -138 311 -281 635 l-260 587 -172 0 -172 0 -277 -627z"/>
<path d="M7390 2550 l0 -140 283 0 c396 -1 464 -12 557 -96 82 -75 122 -205
100 -330 -14 -82 -39 -133 -90 -184 -79 -79 -151 -100 -352 -100 l-148 0 0
170 0 170 -175 0 -175 0 0 -311 0 -310 383 4 c426 4 433 5 584 78 143 68 255
192 305 337 20 58 23 86 23 212 -1 156 -12 208 -73 318 -34 62 -154 181 -217
216 -154 85 -294 106 -727 106 l-278 0 0 -140z"/>
<path d="M8890 2555 l0 -135 505 0 505 0 0 135 0 135 -505 0 -505 0 0 -135z"/>
<path d="M10120 2055 l0 -635 480 0 480 0 0 140 0 140 -305 0 -305 0 0 495 0
495 -175 0 -175 0 0 -635z"/>
<path d="M8890 2060 l0 -130 505 0 505 0 0 130 0 130 -505 0 -505 0 0 -130z"/>
<path d="M8890 1555 l0 -135 505 0 505 0 0 135 0 135 -505 0 -505 0 0 -135z"/>
</g>
</svg>
