<?xml version="1.0" encoding="utf-8"?>
<!-- Generator: Adobe Illustrator 23.1.0, SVG Export Plug-In . SVG Version: 6.00 Build 0)  -->
<svg version="1.1" xmlns="http://www.w3.org/2000/svg" xmlns:xlink="http://www.w3.org/1999/xlink" x="0px" y="0px"
	 viewBox="0 0 595.3 595.3" enable-background="new 0 0 595.3 595.3" xml:space="preserve">
<g id="Capa_1">
</g>
<g id="Capa_2">
	<g>
		<polygon fill="#61ADA6" points="19.8,210.4 233.6,164.9 576.9,378.7 350.4,445.5 		"/>
		<polygon opacity="0.2" fill="#A1D9F3" stroke="#000000" stroke-width="0.6187" stroke-miterlimit="10" points="19.8,164.9 
			68.1,191.3 102.2,229.4 102.2,269 19.8,210.4 		"/>
		<polygon opacity="0.2" fill="#A1D9F3" stroke="#000000" stroke-width="0.6187" stroke-miterlimit="10" points="232.4,122.6 
			282.3,147 318.9,183.6 321.5,219.7 233.6,164.9 		"/>
		<polygon opacity="0.2" fill="#A1D9F3" stroke="#000000" stroke-width="0.6187" stroke-miterlimit="10" points="343.6,392.7 
			271.3,344.1 232.4,339.8 232.4,361.6 350.4,445.5 		"/>
		<polygon opacity="0.2" fill="#A1D9F3" stroke="#000000" stroke-width="0.6194" stroke-miterlimit="10" points="577.8,327.3 
			491.6,284.2 453.6,281.1 451.8,301.4 576.9,378.6 		"/>
		<polygon opacity="0.2" fill="#A1D9F3" stroke="#000000" stroke-width="0.6187" stroke-miterlimit="10" points="232.4,122.6 
			19.8,164.9 19.8,210.4 233.6,164.9 		"/>
		<polygon opacity="0.2" fill="#A1D9F3" stroke="#000000" stroke-width="0.569" stroke-miterlimit="10" points="343.6,392.7 
			577.8,327.3 576.9,378.6 350.4,445.5 		"/>
		<g>
			<line fill="none" stroke="#FFFFFF" stroke-width="1.8562" stroke-miterlimit="10" x1="59.3" y1="238.5" x2="271.9" y2="188.8"/>
			<line fill="none" stroke="#FFFFFF" stroke-width="1.8562" stroke-miterlimit="10" x1="173.3" y1="211.8" x2="420.9" y2="379.5"/>
			<line fill="none" stroke="#FFFFFF" stroke-width="1.8562" stroke-miterlimit="10" x1="304.9" y1="412.6" x2="528.7" y2="348.3"/>
		</g>
		<polygon fill="none" stroke="#F6F6F6" stroke-width="1.2375" stroke-miterlimit="10" points="389.8,240.2 165.8,293.1 
			168.4,316.1 392,262.8 		"/>
		<g>
			<defs>
				<polygon id="SVGID_1_" points="389.8,240.4 165.8,293.3 168.4,316.3 392,263 				"/>
			</defs>
			<clipPath id="SVGID_2_">
				<use xlink:href="#SVGID_1_"  overflow="visible"/>
			</clipPath>
			<g clip-path="url(#SVGID_2_)">
				
					<line fill="none" stroke="#F6F6F6" stroke-width="0.7636" stroke-miterlimit="10" x1="389.2" y1="236.4" x2="149.6" y2="292.9"/>
				<line fill="none" stroke="#F6F6F6" stroke-width="0.7636" stroke-miterlimit="10" x1="391.5" y1="239.7" x2="152" y2="296.2"/>
				
					<line fill="none" stroke="#F6F6F6" stroke-width="0.7636" stroke-miterlimit="10" x1="393.9" y1="243.1" x2="154.4" y2="299.6"/>
				
					<line fill="none" stroke="#F6F6F6" stroke-width="0.7636" stroke-miterlimit="10" x1="396.3" y1="246.4" x2="156.7" y2="302.9"/>
				
					<line fill="none" stroke="#F6F6F6" stroke-width="0.7636" stroke-miterlimit="10" x1="398.6" y1="249.8" x2="159.1" y2="306.3"/>
				<line fill="none" stroke="#F6F6F6" stroke-width="0.7636" stroke-miterlimit="10" x1="401" y1="253.1" x2="161.4" y2="309.7"/>
				<line fill="none" stroke="#F6F6F6" stroke-width="0.7636" stroke-miterlimit="10" x1="403.3" y1="256.5" x2="163.8" y2="313"/>
				
					<line fill="none" stroke="#F6F6F6" stroke-width="0.7636" stroke-miterlimit="10" x1="405.7" y1="259.9" x2="166.1" y2="316.4"/>
				<line fill="none" stroke="#F6F6F6" stroke-width="0.7636" stroke-miterlimit="10" x1="408" y1="263.2" x2="168.5" y2="319.7"/>
				<line fill="none" stroke="#F6F6F6" stroke-width="0.58" stroke-miterlimit="10" x1="150.9" y1="284" x2="170.1" y2="338.7"/>
				<line fill="none" stroke="#F6F6F6" stroke-width="0.58" stroke-miterlimit="10" x1="155.8" y1="282.9" x2="175" y2="337.6"/>
				<line fill="none" stroke="#F6F6F6" stroke-width="0.58" stroke-miterlimit="10" x1="160.7" y1="281.7" x2="179.9" y2="336.5"/>
				<line fill="none" stroke="#F6F6F6" stroke-width="0.58" stroke-miterlimit="10" x1="165.7" y1="280.6" x2="184.9" y2="335.4"/>
				<line fill="none" stroke="#F6F6F6" stroke-width="0.58" stroke-miterlimit="10" x1="170.6" y1="279.5" x2="189.8" y2="334.2"/>
				<line fill="none" stroke="#F6F6F6" stroke-width="0.58" stroke-miterlimit="10" x1="175.5" y1="278.4" x2="194.7" y2="333.1"/>
				<line fill="none" stroke="#F6F6F6" stroke-width="0.58" stroke-miterlimit="10" x1="180.4" y1="277.3" x2="199.6" y2="332"/>
				<line fill="none" stroke="#F6F6F6" stroke-width="0.58" stroke-miterlimit="10" x1="185.3" y1="276.1" x2="204.5" y2="330.9"/>
				<line fill="none" stroke="#F6F6F6" stroke-width="0.58" stroke-miterlimit="10" x1="190.3" y1="275" x2="209.5" y2="329.8"/>
				<line fill="none" stroke="#F6F6F6" stroke-width="0.58" stroke-miterlimit="10" x1="195.2" y1="273.9" x2="214.4" y2="328.6"/>
				<line fill="none" stroke="#F6F6F6" stroke-width="0.58" stroke-miterlimit="10" x1="200.1" y1="272.8" x2="219.3" y2="327.5"/>
				<line fill="none" stroke="#F6F6F6" stroke-width="0.58" stroke-miterlimit="10" x1="205" y1="271.7" x2="224.2" y2="326.4"/>
				<line fill="none" stroke="#F6F6F6" stroke-width="0.58" stroke-miterlimit="10" x1="210" y1="270.6" x2="229.1" y2="325.3"/>
				<line fill="none" stroke="#F6F6F6" stroke-width="0.58" stroke-miterlimit="10" x1="214.9" y1="269.4" x2="234.1" y2="324.2"/>
				<line fill="none" stroke="#F6F6F6" stroke-width="0.58" stroke-miterlimit="10" x1="219.8" y1="268.3" x2="239" y2="323.1"/>
				<line fill="none" stroke="#F6F6F6" stroke-width="0.58" stroke-miterlimit="10" x1="224.7" y1="267.2" x2="243.9" y2="321.9"/>
				<line fill="none" stroke="#F6F6F6" stroke-width="0.58" stroke-miterlimit="10" x1="229.6" y1="266.1" x2="248.8" y2="320.8"/>
				<line fill="none" stroke="#F6F6F6" stroke-width="0.58" stroke-miterlimit="10" x1="234.6" y1="265" x2="253.8" y2="319.7"/>
				<line fill="none" stroke="#F6F6F6" stroke-width="0.58" stroke-miterlimit="10" x1="239.5" y1="263.8" x2="258.7" y2="318.6"/>
				<line fill="none" stroke="#F6F6F6" stroke-width="0.58" stroke-miterlimit="10" x1="244.4" y1="262.7" x2="263.6" y2="317.5"/>
				<line fill="none" stroke="#F6F6F6" stroke-width="0.58" stroke-miterlimit="10" x1="249.3" y1="261.6" x2="268.5" y2="316.3"/>
				<line fill="none" stroke="#F6F6F6" stroke-width="0.58" stroke-miterlimit="10" x1="254.3" y1="260.5" x2="273.4" y2="315.2"/>
				<line fill="none" stroke="#F6F6F6" stroke-width="0.58" stroke-miterlimit="10" x1="259.2" y1="259.4" x2="278.4" y2="314.1"/>
				<line fill="none" stroke="#F6F6F6" stroke-width="0.58" stroke-miterlimit="10" x1="264.1" y1="258.2" x2="283.3" y2="313"/>
				<line fill="none" stroke="#F6F6F6" stroke-width="0.58" stroke-miterlimit="10" x1="269" y1="257.1" x2="288.2" y2="311.9"/>
				<line fill="none" stroke="#F6F6F6" stroke-width="0.58" stroke-miterlimit="10" x1="273.9" y1="256" x2="293.1" y2="310.7"/>
				<line fill="none" stroke="#F6F6F6" stroke-width="0.58" stroke-miterlimit="10" x1="278.9" y1="254.9" x2="298.1" y2="309.6"/>
				<line fill="none" stroke="#F6F6F6" stroke-width="0.58" stroke-miterlimit="10" x1="283.8" y1="253.8" x2="303" y2="308.5"/>
				<line fill="none" stroke="#F6F6F6" stroke-width="0.58" stroke-miterlimit="10" x1="288.7" y1="252.7" x2="307.9" y2="307.4"/>
				<line fill="none" stroke="#F6F6F6" stroke-width="0.58" stroke-miterlimit="10" x1="293.6" y1="251.5" x2="312.8" y2="306.3"/>
				<line fill="none" stroke="#F6F6F6" stroke-width="0.58" stroke-miterlimit="10" x1="298.6" y1="250.4" x2="317.7" y2="305.2"/>
				<line fill="none" stroke="#F6F6F6" stroke-width="0.58" stroke-miterlimit="10" x1="303.5" y1="249.3" x2="322.7" y2="304"/>
				<line fill="none" stroke="#F6F6F6" stroke-width="0.58" stroke-miterlimit="10" x1="308.4" y1="248.2" x2="327.6" y2="302.9"/>
				<line fill="none" stroke="#F6F6F6" stroke-width="0.58" stroke-miterlimit="10" x1="313.3" y1="247.1" x2="332.5" y2="301.8"/>
				<line fill="none" stroke="#F6F6F6" stroke-width="0.58" stroke-miterlimit="10" x1="318.2" y1="245.9" x2="337.4" y2="300.7"/>
				<line fill="none" stroke="#F6F6F6" stroke-width="0.58" stroke-miterlimit="10" x1="323.2" y1="244.8" x2="342.4" y2="299.6"/>
				<line fill="none" stroke="#F6F6F6" stroke-width="0.58" stroke-miterlimit="10" x1="328.1" y1="243.7" x2="347.3" y2="298.4"/>
				<line fill="none" stroke="#F6F6F6" stroke-width="0.58" stroke-miterlimit="10" x1="333" y1="242.6" x2="352.2" y2="297.3"/>
				<line fill="none" stroke="#F6F6F6" stroke-width="0.58" stroke-miterlimit="10" x1="337.9" y1="241.5" x2="357.1" y2="296.2"/>
				<line fill="none" stroke="#F6F6F6" stroke-width="0.58" stroke-miterlimit="10" x1="342.9" y1="240.3" x2="362" y2="295.1"/>
				<line fill="none" stroke="#F6F6F6" stroke-width="0.58" stroke-miterlimit="10" x1="347.8" y1="239.2" x2="367" y2="294"/>
				<line fill="none" stroke="#F6F6F6" stroke-width="0.58" stroke-miterlimit="10" x1="352.7" y1="238.1" x2="371.9" y2="292.8"/>
				<line fill="none" stroke="#F6F6F6" stroke-width="0.58" stroke-miterlimit="10" x1="357.6" y1="237" x2="376.8" y2="291.7"/>
				<line fill="none" stroke="#F6F6F6" stroke-width="0.58" stroke-miterlimit="10" x1="362.5" y1="235.9" x2="381.7" y2="290.6"/>
				<line fill="none" stroke="#F6F6F6" stroke-width="0.58" stroke-miterlimit="10" x1="367.5" y1="234.8" x2="386.7" y2="289.5"/>
				<line fill="none" stroke="#F6F6F6" stroke-width="0.58" stroke-miterlimit="10" x1="371.9" y1="233.1" x2="391" y2="287.8"/>
				<line fill="none" stroke="#F6F6F6" stroke-width="0.58" stroke-miterlimit="10" x1="377" y1="232.5" x2="396.2" y2="287.2"/>
				<line fill="none" stroke="#F6F6F6" stroke-width="0.58" stroke-miterlimit="10" x1="382.2" y1="231.9" x2="401.4" y2="286.6"/>
				<line fill="none" stroke="#F6F6F6" stroke-width="0.58" stroke-miterlimit="10" x1="387.4" y1="231.3" x2="406.6" y2="286.1"/>
				<line fill="none" stroke="#F6F6F6" stroke-width="0.58" stroke-miterlimit="10" x1="392.6" y1="230.7" x2="411.8" y2="285.5"/>
				<line fill="none" stroke="#F6F6F6" stroke-width="0.58" stroke-miterlimit="10" x1="397.8" y1="230.2" x2="417" y2="284.9"/>
			</g>
			<use xlink:href="#SVGID_1_"  overflow="visible" fill="none" stroke="#F6F6F6" stroke-width="1.1494" stroke-miterlimit="10"/>
		</g>
	</g>
</g>
</svg>
